<?xml version="1.0" encoding="UTF-8" standalone="no"?><!DOCTYPE svg PUBLIC "-//W3C//DTD SVG 1.1//EN" "http://www.w3.org/Graphics/SVG/1.1/DTD/svg11.dtd"><svg width="100%" height="100%" viewBox="0 0 162 26" version="1.1" xmlns="http://www.w3.org/2000/svg" xmlns:xlink="http://www.w3.org/1999/xlink" xml:space="preserve" xmlns:serif="http://www.serif.com/" style="fill-rule:evenodd;clip-rule:evenodd;stroke-linejoin:round;stroke-miterlimit:2;"><path d="M12.058,25.652c2.93,0 6.485,-0.528 10.856,-1.777l-0.913,-4.9c-3.026,1.057 -6.341,1.681 -8.935,1.681c-4.035,0 -5.812,-1.585 -6.245,-5.812l17.054,-0l-0,-2.402c-0,-8.695 -3.603,-12.442 -11.817,-12.442c-8.311,-0 -12.058,3.795 -12.058,12.634c-0,8.935 3.795,13.018 12.058,13.018Zm-5.285,-14.843c0.289,-4.42 1.874,-5.861 5.188,-5.861c3.219,-0 4.852,1.393 5.092,5.861l-10.28,-0Z" style="fill-rule:nonzero;"/><path d="M72.278,24.836l5.572,-0l0,-16.429c0,-6.678 -4.996,-8.407 -10.232,-8.407c-3.459,-0 -7.638,0.721 -10.232,1.249l0.769,4.9c2.498,-0.529 5.476,-1.009 7.878,-1.009c2.93,0 5.044,0.769 5.044,3.555l-0,1.537c-1.682,-0.144 -3.171,-0.192 -4.66,-0.192c-7.974,-0 -11.241,2.21 -11.241,7.494c0,5.476 3.507,8.118 7.494,8.118c3.027,0 6.341,-1.537 9.223,-3.41l0.385,2.594Zm-10.473,-7.975c0,-2.594 1.346,-3.506 5.333,-3.506c1.105,-0 2.402,0.048 3.939,0.192l-0,4.9c-1.922,1.297 -4.131,2.305 -5.909,2.305c-1.969,0 -3.363,-1.153 -3.363,-3.891Z" style="fill-rule:nonzero;"/><path d="M94.062,25.604c8.503,0 12.298,-3.891 12.298,-12.778c-0,-8.935 -3.795,-12.826 -12.298,-12.826c-8.455,-0 -12.25,3.891 -12.25,12.826c0,8.887 3.795,12.778 12.25,12.778Zm-5.524,-12.778c-0,-5.861 1.345,-7.878 5.524,-7.878c4.179,-0 5.524,1.969 5.524,7.878c0,5.861 -1.345,7.83 -5.524,7.83c-4.179,0 -5.524,-2.017 -5.524,-7.83Z" style="fill-rule:nonzero;"/><path d="M127.356,9.848l0,14.988l6.726,-0l-0,-16.381c-0,-5.813 -2.354,-8.455 -7.446,-8.455c-3.651,-0 -6.918,1.393 -10.136,3.555l-0.529,-2.738l-5.572,-0l-0,24.019l6.773,-0l0,-16.862c2.498,-1.825 4.66,-2.738 6.629,-2.738c2.402,0 3.555,1.441 3.555,4.612Z" style="fill-rule:nonzero;"/><path d="M150.167,25.652c2.93,0 6.485,-0.528 10.856,-1.777l-0.912,-4.9c-3.027,1.057 -6.341,1.681 -8.936,1.681c-4.035,0 -5.812,-1.585 -6.244,-5.812l17.053,-0l0,-2.402c0,-8.695 -3.603,-12.442 -11.817,-12.442c-8.311,-0 -12.058,3.795 -12.058,12.634c0,8.935 3.795,13.018 12.058,13.018Zm-5.284,-14.843c0.288,-4.42 1.873,-5.861 5.188,-5.861c3.218,-0 4.851,1.393 5.092,5.861l-10.28,-0Z" style="fill-rule:nonzero;"/><path d="M24.723,24.931l7.398,-0l10.291,-12.202l-9.618,-11.817l-7.446,-0l9.127,11.481l-9.752,12.538Z" style="fill-rule:nonzero;"/><path d="M44.067,12.917l10.102,-12.005l-7.95,0.012l-6.064,7.189l3.695,4.539l-3.752,4.422l6.395,7.857l7.35,-0l-9.776,-12.014Z" style="fill-rule:nonzero;"/></svg>